Genre:Horror | Sci-Fi | Thriller
Language: English  http://www.imdb.com/title/tt1407049/
Source:DVD


General
Complete name :Altitude.2010.DvDRip,XviD.Ac3.Feel-Free
Format : AVI
Format/Info : Audio Video Interleave
File size : 1.06 GiB
Duration : 1h 30mn
Overall bit rate : 1 687 Kbps
Video #0
Muxing mode : Packed bitstream
Codec ID : XVID
Codec ID/Hint : XviD
Duration : 1h 30mn
Bit rate : 1 229 Kbps
Width : 720 pixels
Height : 304 pixels
Display aspect ratio : 2.35:1
Frame rate : 23.976 fps
Resolution : 24 bits
Colorimetry : 4:2:0
Scan type : Progressive
Bits/(Pixel*Frame) : 0.234
Stream size : 793 MiB (73%)
Writing library : XviD 1.2.1 (UTC 2008-12-04)
Audio #1
ID : 1
Format : AC-3
Format/Info : Audio Coding 3
Codec ID : 2000
Duration : 1h 30mn
Bit rate mode : Constant
Bit rate : 448 Kbps
Channel(s) : 6 channels
Channel positions : Front: L C R, Surround: L R, LFE
Sampling rate : 48.0 KHz
Stream size : 289 MiB (27%)
Alignment : Split accross interleaves
Interleave, duration : 42 ms (1.00 video frame)
Interleave, preload duration : 500 ms

Plot:
After a mysterious malfunction sends their small plane climbing out of control, a rookie pilot and her four teenage friends find themselves trapped in a deadly showdown with a supernatural force.